<svg width="32" height="32" viewBox="0 0 32 32" fill="none" xmlns="http://www.w3.org/2000/svg">
<path fill-rule="evenodd" clip-rule="evenodd" d="M22.3333 22.6667L12.3333 16L22.3333 9.33332C22.4646 9.24577 22.5774 9.13322 22.6652 9.00208C22.753 8.87094 22.8142 8.72379 22.8451 8.56902C22.8761 8.41426 22.8762 8.25491 22.8456 8.10008C22.815 7.94526 22.7542 7.79798 22.6666 7.66665C22.5791 7.53533 22.4665 7.42254 22.3354 7.33472C22.2042 7.24689 22.0571 7.18576 21.9023 7.15481C21.7475 7.12386 21.5882 7.12369 21.4334 7.15432C21.2785 7.18495 21.1313 7.24577 20.9999 7.33332L9.66394 14.8907C9.48133 15.0124 9.33161 15.1774 9.22805 15.3709C9.12449 15.5644 9.07031 15.7805 9.07031 16C9.07031 16.2195 9.12449 16.4356 9.22805 16.6291C9.33161 16.8226 9.48133 16.9876 9.66394 17.1093L20.9999 24.6667C21.1313 24.7542 21.2785 24.815 21.4334 24.8457C21.5882 24.8763 21.7475 24.8761 21.9023 24.8452C22.0571 24.8142 22.2042 24.7531 22.3354 24.6653C22.4665 24.5774 22.5791 24.4646 22.6666 24.3333C22.7542 24.202 22.815 24.0547 22.8456 23.8999C22.8762 23.7451 22.8761 23.5857 22.8451 23.431C22.8142 23.2762 22.753 23.129 22.6652 22.9979C22.5774 22.8668 22.4646 22.7542 22.3333 22.6667Z" fill="black"/>
</svg>
