<svg width="14" height="16" viewBox="0 0 14 16" fill="none" xmlns="http://www.w3.org/2000/svg">
<path d="M12.6303 9.8675C13.1207 8.94639 13.3765 7.91856 13.375 6.875C13.375 3.35413 10.5209 0.5 7.00001 0.5C3.47913 0.5 0.625009 3.35413 0.625009 6.875C0.622429 8.37885 1.15402 9.83475 2.12501 10.9831L2.13251 10.9925C2.13513 10.9948 2.13738 10.9978 2.13926 11H2.12501L5.90801 15.0162C6.04825 15.1651 6.21744 15.2837 6.4052 15.3648C6.59296 15.4459 6.79531 15.4877 6.99982 15.4877C7.20433 15.4877 7.40669 15.4459 7.59444 15.3648C7.7822 15.2837 7.9514 15.1651 8.09163 15.0162L11.875 11H11.8608L11.8668 10.9929L11.8675 10.9921C11.8945 10.9599 11.9215 10.9276 11.9481 10.8946C12.2082 10.5749 12.4368 10.2308 12.6306 9.86712L12.6303 9.8675ZM7.00151 9.3125C6.40477 9.3125 5.83248 9.07545 5.41052 8.65349C4.98856 8.23153 4.75151 7.65924 4.75151 7.0625C4.75151 6.46576 4.98856 5.89347 5.41052 5.47151C5.83248 5.04955 6.40477 4.8125 7.00151 4.8125C7.59825 4.8125 8.17054 5.04955 8.5925 5.47151C9.01446 5.89347 9.25151 6.46576 9.25151 7.0625C9.25151 7.65924 9.01446 8.23153 8.5925 8.65349C8.17054 9.07545 7.59825 9.3125 7.00151 9.3125Z" fill="#201F1F"/>
</svg>
