<svg width="22" height="22" viewBox="0 0 22 22" fill="none" xmlns="http://www.w3.org/2000/svg">
<path d="M20 0.5H2C1.6023 0.500397 1.221 0.65856 0.939778 0.939778C0.65856 1.221 0.500397 1.6023 0.5 2V20C0.500397 20.3977 0.65856 20.779 0.939778 21.0602C1.221 21.3414 1.6023 21.4996 2 21.5H20C20.3976 21.4994 20.7788 21.3412 21.06 21.06C21.3412 20.7788 21.4994 20.3976 21.5 20V2C21.4996 1.6023 21.3414 1.221 21.0602 0.939778C20.779 0.65856 20.3977 0.500397 20 0.5ZM20 7.25H9.5V2H20V7.25ZM8 2V7.25H2V2H8ZM2 20V8.75H20L20.0015 20H2Z" fill="#14213D" fill-opacity="0.24"/>
</svg>
