<svg width="42" height="42" viewBox="0 0 42 42" fill="none" xmlns="http://www.w3.org/2000/svg">
<path d="M21 0C16.8466 0 12.7865 1.23163 9.33302 3.53914C5.87959 5.84665 3.18796 9.1264 1.59852 12.9636C0.00908369 16.8009 -0.406786 21.0233 0.403503 25.0969C1.21379 29.1705 3.21385 32.9123 6.15075 35.8492C9.08765 38.7861 12.8295 40.7862 16.9031 41.5965C20.9767 42.4068 25.1991 41.9909 29.0363 40.4015C32.8736 38.812 36.1533 36.1204 38.4609 32.667C40.7684 29.2135 42 25.1534 42 21C41.9936 15.4324 39.7791 10.0947 35.8422 6.15777C31.9053 2.22089 26.5676 0.00635208 21 0ZM32.988 34.389C32.9581 32.4215 32.1565 30.5445 30.7559 29.1624C29.3552 27.7803 27.4677 27.0037 25.5 27H16.5C14.5323 27.0037 12.6448 27.7803 11.2441 29.1624C9.8435 30.5445 9.04189 32.4215 9.01199 34.389C6.29184 31.9601 4.37359 28.7623 3.51125 25.219C2.6489 21.6757 2.88314 17.954 4.18295 14.5468C5.48276 11.1396 7.78682 8.2075 10.7901 6.13885C13.7933 4.0702 17.354 2.96254 21.0007 2.96254C24.6475 2.96254 28.2082 4.0702 31.2114 6.13885C34.2147 8.2075 36.5187 11.1396 37.8185 14.5468C39.1183 17.954 39.3526 21.6757 38.4902 25.219C37.6279 28.7623 35.7081 31.9601 32.988 34.389Z" fill="black" fill-opacity="0.9"/>
</svg>
